<?xml version="1.0" encoding="UTF-8"?>
<svg version="1.1" xmlns="http://www.w3.org/2000/svg" width="192" height="192">
<path d="M0 0 C1.12468689 -0.01354271 1.12468689 -0.01354271 2.27209473 -0.02735901 C3.85192943 -0.04177423 5.43182265 -0.05072634 7.01171875 -0.05444336 C9.37348269 -0.06624255 11.73254301 -0.11542538 14.09375 -0.16601562 C37.27503775 -0.41119911 57.32530564 9.77447776 74.90625 24.37109375 C75.73898438 24.99886719 76.57171875 25.62664063 77.4296875 26.2734375 C93.54420002 39.92248044 102.72153814 63.0132247 105.90625 83.37109375 C106.2692969 88.54755661 106.28371683 93.68414167 106.21875 98.87109375 C106.22197266 100.18851562 106.22519531 101.5059375 106.22851562 102.86328125 C106.19506172 108.86065365 106.01216376 113.71049251 103.90625 119.37109375 C103.596875 120.48484375 103.2875 121.59859375 102.96875 122.74609375 C102.00375428 126.03843209 100.86680619 129.17411523 99.63671875 132.37109375 C98.55608447 135.32983573 97.72946205 138.33154156 96.90625 141.37109375 C96.24625 141.37109375 95.58625 141.37109375 94.90625 141.37109375 C94.57625 142.69109375 94.24625 144.01109375 93.90625 145.37109375 C93.24625 145.37109375 92.58625 145.37109375 91.90625 145.37109375 C91.57625 147.35109375 91.24625 149.33109375 90.90625 151.37109375 C90.24625 151.37109375 89.58625 151.37109375 88.90625 151.37109375 C88.57625 152.36109375 88.24625 153.35109375 87.90625 154.37109375 C87.24625 154.37109375 86.58625 154.37109375 85.90625 154.37109375 C85.6484375 154.9434375 85.390625 155.51578125 85.125 156.10546875 C83.79259058 158.5823837 82.25568882 160.50521035 80.40625 162.62109375 C79.7978125 163.3275 79.189375 164.03390625 78.5625 164.76171875 C76.90625 166.37109375 76.90625 166.37109375 74.90625 166.37109375 C74.90625 167.03109375 74.90625 167.69109375 74.90625 168.37109375 C74.24625 168.37109375 73.58625 168.37109375 72.90625 168.37109375 C72.57625 169.36109375 72.24625 170.35109375 71.90625 171.37109375 C62.87399194 179.37109375 62.87399194 179.37109375 58.90625 179.37109375 C58.57625 180.03109375 58.24625 180.69109375 57.90625 181.37109375 C55.5921878 182.10185023 53.25796131 182.77247633 50.90625 183.37109375 C50.90625 184.03109375 50.90625 184.69109375 50.90625 185.37109375 C48.98112539 186.40241051 47.22330323 187.29456366 45.09375 187.80859375 C42.64588358 188.37620933 42.64588358 188.37620933 39.46875 189.87109375 C33.70028957 192.2999192 28.53022004 192.50963065 22.32421875 192.46875 C21.10295036 192.46662758 21.10295036 192.46662758 19.85700989 192.46446228 C17.26921844 192.45888692 14.68151508 192.44633899 12.09375 192.43359375 C10.33398563 192.42857556 8.57421989 192.42401321 6.81445312 192.41992188 C2.51168506 192.40892556 -1.79101756 192.39167796 -6.09375 192.37109375 C-3.43014148 190.23750429 -1.00358523 188.7733358 2.1875 187.57421875 C3.01950928 187.2589624 3.85151855 186.94370605 4.70874023 186.61889648 C5.59891846 186.28962158 6.48909668 185.96034668 7.40625 185.62109375 C8.3331665 185.27183838 9.26008301 184.92258301 10.21508789 184.56274414 C15.7196537 182.50348547 21.25361386 180.55349615 26.81933594 178.66674805 C38.49746868 174.69686056 49.8508373 170.43244823 59.453125 162.4375 C60.90625 161.37109375 60.90625 161.37109375 62.90625 161.37109375 C62.90625 160.71109375 62.90625 160.05109375 62.90625 159.37109375 C64.01100231 158.36567884 65.16798243 157.41745547 66.34375 156.49609375 C73.46473621 150.45212503 78.93069497 142.78991617 82.90625 134.37109375 C83.3290625 133.51128906 83.751875 132.65148437 84.1875 131.765625 C90.34922327 118.71146128 95.32864395 102.03373505 91.4765625 87.625 C90.85920635 85.18517467 90.64708768 82.87945205 90.46875 80.37109375 C89.79471817 72.85031754 87.54609738 65.97674271 83.90625 59.37109375 C83.54273438 58.60667969 83.17921875 57.84226563 82.8046875 57.0546875 C73.27467641 37.91106873 56.83871684 24.67123523 36.82568359 17.64013672 C20.27715992 12.1118307 2.66429003 10.92990298 -14.09375 16.37109375 C-14.71024414 16.55913574 -15.32673828 16.74717773 -15.96191406 16.94091797 C-26.78332019 20.28963966 -35.2709566 25.32402713 -44.09375 32.37109375 C-45.11082031 33.1703125 -46.12789062 33.96953125 -47.17578125 34.79296875 C-50.2143099 37.47761253 -52.72319859 40.33701775 -55.15625 43.55859375 C-55.58744141 44.1215918 -56.01863281 44.68458984 -56.46289062 45.26464844 C-59.59281622 49.45287716 -62.0509929 53.74422094 -64.15625 58.54296875 C-65.09375 60.37109375 -65.09375 60.37109375 -67.09375 61.37109375 C-67.61023524 62.95498183 -68.10854242 64.54667538 -68.5234375 66.16015625 C-68.93282926 67.74725032 -69.38014047 69.3247445 -69.8515625 70.89453125 C-71.77393199 77.40819099 -72.79542058 83.5908796 -73.09375 90.37109375 C-73.14660156 91.44101563 -73.19945313 92.5109375 -73.25390625 93.61328125 C-73.89549647 118.2168715 -65.0149458 137.72500224 -48.72265625 155.76171875 C-47.1699933 157.46234721 -47.1699933 157.46234721 -45.09375 158.37109375 C-45.09375 159.03109375 -45.09375 159.69109375 -45.09375 160.37109375 C-44.51625 160.65984375 -43.93875 160.94859375 -43.34375 161.24609375 C-41.26041667 162.28776042 -39.17708333 163.32942708 -37.09375 164.37109375 C-37.09375 165.03109375 -37.09375 165.69109375 -37.09375 166.37109375 C-32.1671224 168.04614713 -29.14784563 168.23136535 -24.09375 167.37109375 C-21.23111992 168.14180185 -18.73861349 169.048662 -16.09375 170.37109375 C-16.09375 171.03109375 -16.09375 171.69109375 -16.09375 172.37109375 C-15.43375 172.37109375 -14.77375 172.37109375 -14.09375 172.37109375 C-12.47297811 177.98145799 -11.53795805 181.83354452 -14.09375 187.37109375 C-14.75375 187.37109375 -15.41375 187.37109375 -16.09375 187.37109375 C-16.09375 188.03109375 -16.09375 188.69109375 -16.09375 189.37109375 C-23.72367126 192.96164493 -23.72367126 192.96164493 -28.09375 192.37109375 C-30.40625 191.37109375 -30.40625 191.37109375 -32.09375 190.37109375 C-32.09375 189.71109375 -32.09375 189.05109375 -32.09375 188.37109375 C-33.0528125 188.03078125 -33.0528125 188.03078125 -34.03125 187.68359375 C-34.711875 187.25046875 -35.3925 186.81734375 -36.09375 186.37109375 C-36.20847656 185.57445312 -36.32320312 184.7778125 -36.44140625 183.95703125 C-36.84039598 181.22728147 -36.84039598 181.22728147 -39.125 179.859375 C-39.9396875 179.47136719 -40.754375 179.08335937 -41.59375 178.68359375 C-46.01015543 176.53828288 -46.01015543 176.53828288 -47.09375 174.37109375 C-47.795 173.95859375 -48.49625 173.54609375 -49.21875 173.12109375 C-54.79001651 169.72988805 -59.16107515 165.56784266 -63.09375 160.37109375 C-63.83625 159.62859375 -63.83625 159.62859375 -64.59375 158.87109375 C-66.62700429 156.83783946 -68.37886139 154.67732327 -70.09375 152.37109375 C-70.09375 151.71109375 -70.09375 151.05109375 -70.09375 150.37109375 C-70.75375 150.04109375 -71.41375 149.71109375 -72.09375 149.37109375 C-75.09375 144.87109375 -75.09375 144.87109375 -75.09375 142.37109375 C-75.75375 142.04109375 -76.41375 141.71109375 -77.09375 141.37109375 C-77.09375 140.38109375 -77.09375 139.39109375 -77.09375 138.37109375 C-77.75375 138.37109375 -78.41375 138.37109375 -79.09375 138.37109375 C-80.89606719 133.07228122 -82.64499632 127.77977414 -84.09375 122.37109375 C-84.60808594 120.57091797 -84.60808594 120.57091797 -85.1328125 118.734375 C-86.60019306 112.04170466 -86.42873552 105.21473062 -86.40942383 98.39770508 C-86.40627077 96.07390069 -86.42975964 93.75138155 -86.45507812 91.42773438 C-86.4934773 82.65920013 -85.8648033 74.77824165 -83.09375 66.37109375 C-82.84375244 65.61030518 -82.59375488 64.8495166 -82.33618164 64.06567383 C-77.1686637 49.40727686 -68.98732783 37.46915853 -58.09375 26.37109375 C-57.35898437 25.61183594 -56.62421875 24.85257813 -55.8671875 24.0703125 C-41.84177947 10.4905278 -19.62346273 0.15120527 0 0 Z " fill="#0AB5BF" transform="translate(86.09375,-0.37109375)"/>
<path d="M0 0 C4.86570792 4.16929774 9.62686885 8.40343746 11.07421875 14.77734375 C11.73421875 15.10734375 12.39421875 15.43734375 13.07421875 15.77734375 C17.76358187 25.12107475 18.06495459 37.93979641 15.07421875 47.77734375 C10.35473823 61.63708401 10.35473823 61.63708401 6.07421875 63.77734375 C5.70296875 64.82921875 5.70296875 64.82921875 5.32421875 65.90234375 C3.06891042 71.08955291 -1.06610128 75.82682377 -5.92578125 78.77734375 C-6.58578125 78.77734375 -7.24578125 78.77734375 -7.92578125 78.77734375 C-8.20421875 79.64359375 -8.20421875 79.64359375 -8.48828125 80.52734375 C-10.67135335 83.94432617 -13.2936594 84.99314355 -16.92578125 86.77734375 C-17.91578125 86.77734375 -18.90578125 86.77734375 -19.92578125 86.77734375 C-19.45140625 87.87046875 -18.97703125 88.96359375 -18.48828125 90.08984375 C-17.52390316 92.3121063 -16.69411297 94.4723486 -15.92578125 96.77734375 C-15.26578125 96.77734375 -14.60578125 96.77734375 -13.92578125 96.77734375 C-13.92578125 97.43734375 -13.92578125 98.09734375 -13.92578125 98.77734375 C-13.19359375 99.06480469 -12.46140625 99.35226563 -11.70703125 99.6484375 C-10.0242922 100.33145939 -8.35280211 101.04466676 -6.70703125 101.8125 C-0.72884432 104.50473144 4.55343203 105.2967829 11.09375 105.50390625 C14.1699167 105.78612338 16.3407791 106.35014959 19.07421875 107.77734375 C20.57421875 110.58984375 20.57421875 110.58984375 21.07421875 113.77734375 C20.12109375 116.40625 20.12109375 116.40625 18.07421875 118.77734375 C15.11825644 119.48203519 12.81127422 119.80693946 9.82421875 119.90234375 C9.02661133 119.93674561 8.22900391 119.97114746 7.40722656 120.0065918 C-2.9661812 120.17659699 -12.59730045 117.07417999 -20.92578125 110.77734375 C-20.92578125 110.11734375 -20.92578125 109.45734375 -20.92578125 108.77734375 C-22.57578125 108.11734375 -24.22578125 107.45734375 -25.92578125 106.77734375 C-25.92578125 106.11734375 -25.92578125 105.45734375 -25.92578125 104.77734375 C-26.91578125 104.28234375 -26.91578125 104.28234375 -27.92578125 103.77734375 C-28.59244792 102.44401042 -29.25911458 101.11067708 -29.92578125 99.77734375 C-30.91578125 99.28234375 -30.91578125 99.28234375 -31.92578125 98.77734375 C-31.92578125 98.11734375 -31.92578125 97.45734375 -31.92578125 96.77734375 C-32.91578125 96.28234375 -32.91578125 96.28234375 -33.92578125 95.77734375 C-34.26920574 94.44657386 -34.60197999 93.11302396 -34.92578125 91.77734375 C-35.91578125 90.78734375 -35.91578125 90.78734375 -36.92578125 89.77734375 C-36.92578125 88.78734375 -36.92578125 87.79734375 -36.92578125 86.77734375 C-37.91578125 86.28234375 -37.91578125 86.28234375 -38.92578125 85.77734375 C-39.671875 83.80859375 -39.671875 83.80859375 -40.36328125 81.27734375 C-40.61980469 80.37628906 -40.87632813 79.47523437 -41.140625 78.546875 C-41.39972656 77.63292969 -41.65882812 76.71898438 -41.92578125 75.77734375 C-43.45222318 70.73929447 -44.94464425 66.1780698 -47.92578125 61.77734375 C-50.18338305 63.56605067 -50.18338305 63.56605067 -49.9375 65.984375 C-49.83050781 66.84417969 -49.72351563 67.70398438 -49.61328125 68.58984375 C-49.51402344 69.44191406 -49.41476563 70.29398437 -49.3125 71.171875 C-48.97260279 73.72743888 -48.97260279 73.72743888 -48.390625 76 C-47.69917389 80.13127514 -47.78177776 84.22157498 -47.80078125 88.40234375 C-47.79498047 89.69011719 -47.79498047 89.69011719 -47.7890625 91.00390625 C-47.79035156 91.82890625 -47.79164062 92.65390625 -47.79296875 93.50390625 C-47.79409668 94.25236816 -47.79522461 95.00083008 -47.79638672 95.77197266 C-47.92578125 97.77734375 -47.92578125 97.77734375 -48.92578125 100.77734375 C-49.01859375 102.72640625 -49.01859375 102.72640625 -49.11328125 104.71484375 C-49.78161541 111.48729657 -53.09724563 118.94880813 -57.92578125 123.77734375 C-65.08643699 124.45931096 -65.08643699 124.45931096 -67.92578125 122.15234375 C-69.25198974 119.00259858 -69.38505716 117.18910769 -68.92578125 113.77734375 C-67.99039501 111.78438118 -66.93977574 109.87623121 -65.8828125 107.9453125 C-64.29767683 104.35449496 -64.10563358 100.66215405 -63.92578125 96.77734375 C-65.15360987 96.1497192 -66.38311961 95.5253831 -67.61328125 94.90234375 C-68.34675781 94.52980469 -69.08023438 94.15726562 -69.8359375 93.7734375 C-71.97060439 92.69438279 -71.97060439 92.69438279 -74.55078125 91.96484375 C-78.26795302 90.10625786 -80.39533017 87.00257185 -82.92578125 83.77734375 C-83.79203125 82.81828125 -83.79203125 82.81828125 -84.67578125 81.83984375 C-88.67609599 75.23932443 -88.02397465 69.15829456 -86.6796875 61.828125 C-84.89837642 54.61981436 -80.60590611 49.45161317 -74.92578125 44.77734375 C-73.67041927 44.12182207 -72.39968824 43.49462697 -71.11328125 42.90234375 C-67.60740018 40.57276656 -67.60740018 40.57276656 -66.67578125 36.83984375 C-66.4147147 35.15402036 -66.16600491 33.46626318 -65.92578125 31.77734375 C-64.37020932 24.00908637 -62.53060317 16.85889747 -58.92578125 9.77734375 C-58.26578125 9.77734375 -57.60578125 9.77734375 -56.92578125 9.77734375 C-56.65765625 9.19984375 -56.38953125 8.62234375 -56.11328125 8.02734375 C-54.89648936 5.72184332 -53.62244246 3.75678183 -51.92578125 1.77734375 C-51.26578125 1.77734375 -50.60578125 1.77734375 -49.92578125 1.77734375 C-49.92578125 1.11734375 -49.92578125 0.45734375 -49.92578125 -0.22265625 C-47.70025867 -1.37607323 -45.47082156 -2.52046784 -43.23828125 -3.66015625 C-42.61244141 -3.98564453 -41.98660156 -4.31113281 -41.34179688 -4.64648438 C-27.92470103 -11.46040216 -12.01414114 -8.72746297 0 0 Z M-34.92578125 6.77734375 C-35.75078125 7.04546875 -36.57578125 7.31359375 -37.42578125 7.58984375 C-44.88059359 11.13087961 -47.92342496 18.45731317 -50.92578125 25.77734375 C-51.71506422 28.64394204 -51.87440473 30.74612882 -51.92578125 33.77734375 C-52.00828125 34.93234375 -52.09078125 36.08734375 -52.17578125 37.27734375 C-50.39355655 42.26757291 -47.01657443 43.85050562 -42.72265625 46.75390625 C-36.09078962 51.55182094 -33.33933901 57.52997147 -30.8046875 65.14453125 C-29.70004685 68.45354368 -28.34174577 71.59142359 -26.92578125 74.77734375 C-22.79729772 74.21403181 -20.14685847 72.89942472 -16.73828125 70.52734375 C-15.87847656 69.9446875 -15.01867187 69.36203125 -14.1328125 68.76171875 C-11.66454673 66.54246387 -11.12891197 64.80745076 -9.92578125 61.77734375 C-9.31089844 61.49761719 -8.69601563 61.21789062 -8.0625 60.9296875 C-4.62387203 59.07521721 -3.39354199 55.72683952 -1.73828125 52.33984375 C-1.38314453 51.62207764 -1.02800781 50.90431152 -0.66210938 50.16479492 C2.06283303 44.38204831 3.24637961 39.20109591 3.07421875 32.77734375 C3.08453125 31.90078125 3.09484375 31.02421875 3.10546875 30.12109375 C3.07498105 27.83451638 2.72147417 25.9618308 2.07421875 23.77734375 C1.41421875 23.77734375 0.75421875 23.77734375 0.07421875 23.77734375 C-0.00828125 22.89046875 -0.09078125 22.00359375 -0.17578125 21.08984375 C-1.47589865 15.34765855 -5.22411577 12.0549691 -9.9453125 8.84375 C-13.44049871 6.96172666 -17.03063312 6.35054281 -20.92578125 5.77734375 C-21.71726562 5.64328125 -22.50875 5.50921875 -23.32421875 5.37109375 C-27.82688939 4.71289605 -30.78945848 4.59428451 -34.92578125 6.77734375 Z M-69.42578125 57.83984375 C-73.09381763 62.14978649 -73.89012497 65.74493553 -73.98828125 71.33984375 C-72.58255728 75.88777423 -70.06261789 78.43913174 -65.92578125 80.77734375 C-64.60578125 80.77734375 -63.28578125 80.77734375 -61.92578125 80.77734375 C-61.70502476 75.69994451 -62.34268682 71.25082363 -63.4140625 66.2890625 C-64.1249077 62.79995209 -64.53269335 59.31513489 -64.92578125 55.77734375 C-67.208819 55.5652161 -67.208819 55.5652161 -69.42578125 57.83984375 Z " fill="#07B4BE" transform="translate(126.92578125,35.22265625)"/>
<path d="M0 0 C0.66 0 1.32 0 2 0 C2.144375 1.051875 2.28875 2.10375 2.4375 3.1875 C2.89963806 6.7392922 2.89963806 6.7392922 3.52734375 9.13671875 C4.21473959 13.30086052 4.14414886 17.41225119 4.125 21.625 C4.13080078 22.91277344 4.13080078 22.91277344 4.13671875 24.2265625 C4.13542969 25.0515625 4.13414063 25.8765625 4.1328125 26.7265625 C4.13168457 27.47502441 4.13055664 28.22348633 4.12939453 28.99462891 C4 31 4 31 3 34 C2.9071875 35.9490625 2.9071875 35.9490625 2.8125 37.9375 C2.14416584 44.70995282 -1.17146438 52.17146438 -6 57 C-13.16065574 57.68196721 -13.16065574 57.68196721 -16 55.375 C-17.32620849 52.22525483 -17.45927591 50.41176394 -17 47 C-16.06461376 45.00703743 -15.01399449 43.09888746 -13.95703125 41.16796875 C-12.37189558 37.57715121 -12.17985233 33.8848103 -12 30 C-16.27113698 27.81673892 -20.50202887 25.68673918 -25 24 C-25 23.67 -25 23.34 -25 23 C-21.08106894 22.78149845 -18.35696067 23.42020067 -14.75 24.9375 C-13.87859375 25.29714844 -13.0071875 25.65679687 -12.109375 26.02734375 C-10 27 -10 27 -9 28 C-8.29583144 35.15904699 -9.86355627 39.76923724 -13.00390625 46.203125 C-14.11483826 49.32244781 -13.95199151 50.87609972 -13 54 C-10.62694422 54.41780879 -10.62694422 54.41780879 -8 54 C-6.24471981 51.8552976 -6.24471981 51.8552976 -5 49 C-4.2265625 47.63875 -4.2265625 47.63875 -3.4375 46.25 C2.80637031 32.13342364 1.22208717 15.02227157 0 0 Z " fill="#53CBD2" transform="translate(75,102)"/>
<path d="M0 0 C2.0625 2.1875 2.0625 2.1875 3 4 C2.34 4.33 1.68 4.66 1 5 C0.505 4.01 0.505 4.01 0 3 C-6.14810263 0.90031317 -14.61176941 -1.1048578 -20.875 0.9375 C-21.57625 1.288125 -22.2775 1.63875 -23 2 C-23.99 2 -24.98 2 -26 2 C-26.33 2.66 -26.66 3.32 -27 4 C-28.9375 6.125 -28.9375 6.125 -31 8 C-31.66 8 -32.32 8 -33 8 C-33.12375 8.58265625 -33.2475 9.1653125 -33.375 9.765625 C-34.0031645 12.01131308 -34.86115326 13.72352272 -36 15.75 C-39.19398342 22.0102075 -39.62263763 28.10379009 -38 35 C-36.58408173 36.92283085 -36.58408173 36.92283085 -35 38 C-35.99 38.495 -35.99 38.495 -37 39 C-37.66 38.67 -38.32 38.34 -39 38 C-39 37.34 -39 36.68 -39 36 C-39.99 35.67 -40.98 35.34 -42 35 C-42.41136629 27.12309743 -41.436168 20.49701701 -39 13 C-38.34 13 -37.68 13 -37 13 C-36.91105469 12.24976563 -36.82210937 11.49953125 -36.73046875 10.7265625 C-35.48052979 6.06101494 -31.76215878 3.78882963 -28 1 C-19.0523976 -4.16207831 -9.36165041 -4.63236946 0 0 Z " fill="#54CBD2" transform="translate(115,41)"/>
<path d="M0 0 C0 0.66 0 1.32 0 2 C0.66 2 1.32 2 2 2 C3.62077189 7.61036424 4.55579195 11.46245077 2 17 C1.34 17 0.68 17 0 17 C0 17.66 0 18.32 0 19 C-7.62992126 22.59055118 -7.62992126 22.59055118 -12 22 C-14.3125 21 -14.3125 21 -16 20 C-16 19.34 -16 18.68 -16 18 C-16.639375 17.773125 -17.27875 17.54625 -17.9375 17.3125 C-20 16 -20 16 -20.625 13.5 C-20.74875 12.675 -20.8725 11.85 -21 11 C-21.66 10.34 -22.32 9.68 -23 9 C-20.6875 9.125 -20.6875 9.125 -18 10 C-16.375 12.9375 -16.375 12.9375 -15 16 C-11.4913604 18.33909307 -10.12910567 18.41291057 -6 18 C-3.10814725 17.29885344 -3.10814725 17.29885344 -1 15 C0.24733636 11.10288172 1 7.09891531 1 3 C-4.85282302 0.3396259 -10.62567459 -0.15547135 -17 0 C-12.3178674 -4.6821326 -5.13942524 -3.42628349 0 0 Z " fill="#53CAD2" transform="translate(70,170)"/>
<path d="M0 0 C3.88694884 1.46175854 5.00815228 3.30126163 6.75 7 C7.17796875 7.886875 7.6059375 8.77375 8.046875 9.6875 C9 12 9 12 9 14 C9.66 14 10.32 14 11 14 C12.625 15.375 12.625 15.375 14 17 C14 17.66 14 18.32 14 19 C14.99 19.33 15.98 19.66 17 20 C17 20.99 17 21.98 17 23 C17.72960937 23.12503906 18.45921875 23.25007813 19.2109375 23.37890625 C21.89650819 23.9769535 24.11644177 24.82584794 26.625 25.9375 C31.97036642 28.15131892 37.29297409 29.17541071 43 30 C43 30.66 43 31.32 43 32 C37.93723101 33.27350516 34.30052795 32.53390144 29.5 30.8125 C28.86191406 30.60302734 28.22382812 30.39355469 27.56640625 30.17773438 C23.16862948 28.66234504 19.65695591 26.81608179 16 24 C16 23.34 16 22.68 16 22 C13.525 21.01 13.525 21.01 11 20 C11 19.34 11 18.68 11 18 C10.34 17.67 9.68 17.34 9 17 C8.33333333 15.66666667 7.66666667 14.33333333 7 13 C6.34 12.67 5.68 12.34 5 12 C5 11.34 5 10.68 5 10 C4.34 9.67 3.68 9.34 3 9 C2.65657551 7.66923011 2.32380126 6.33568021 2 5 C1.34 4.34 0.68 3.68 0 3 C0 2.01 0 1.02 0 0 Z " fill="#4AC8D0" transform="translate(90,122)"/>
<path d="M0 0 C1.35951856 2.71903712 0.7265536 4.16667477 0.125 7.125 C-0.06578125 8.12144531 -0.2565625 9.11789063 -0.453125 10.14453125 C-0.72382813 11.55798828 -0.72382813 11.55798828 -1 13 C-3.53338465 28.45364634 -2.35812929 44.74504451 4.23046875 59.08203125 C5 61 5 61 5 64 C4.01 63.67 3.02 63.34 2 63 C1.12451172 61.22167969 1.12451172 61.22167969 0.4296875 58.921875 C0.17316406 58.09042969 -0.08335938 57.25898437 -0.34765625 56.40234375 C-0.60417969 55.52707031 -0.86070313 54.65179688 -1.125 53.75 C-1.38925781 52.89019531 -1.65351563 52.03039062 -1.92578125 51.14453125 C-6.56411857 35.86391743 -7.04707759 18.30329489 -2 3 C-1.34 2.01 -0.68 1.02 0 0 Z " fill="#4DC9D0" transform="translate(15,69)"/>
<path d="M0 0 C0.33 0 0.66 0 1 0 C1.04969106 4.16258147 1.08585642 8.32500261 1.10986328 12.48779297 C1.11987856 13.90188609 1.13349474 15.31595873 1.15087891 16.72998047 C1.17532559 18.77055946 1.18652784 20.81086303 1.1953125 22.8515625 C1.20578613 24.07697754 1.21625977 25.30239258 1.22705078 26.56494141 C0.99588925 30.06219163 0.23542152 32.736481 -1 36 C-1.309375 37.11375 -1.61875 38.2275 -1.9375 39.375 C-2.90249572 42.66733834 -4.03944381 45.80302148 -5.26953125 49 C-6.35016553 51.95874198 -7.17678795 54.96044781 -8 58 C-8.66 58 -9.32 58 -10 58 C-10.33 59.32 -10.66 60.64 -11 62 C-11.66 62 -12.32 62 -13 62 C-13.33 62.99 -13.66 63.98 -14 65 C-13.4973262 58.46524064 -13.4973262 58.46524064 -11.0625 56.1875 C-8.28518237 53.24186009 -8.20405553 50.68369624 -7.5625 46.765625 C-6.97992668 43.90130619 -6.07898814 41.40083782 -5 38.6875 C-1.13904941 28.35801653 -0.78207228 18.0860008 -0.98535156 7.18359375 C-1.02161099 5.122709 -1.01484367 3.06115025 -1 1 C-0.67 0.67 -0.34 0.34 0 0 Z " fill="#4AC8D0" transform="translate(191,83)"/>
<path d="M0 0 C0.66 0 1.32 0 2 0 C0.90871297 12.54980086 -5.47529994 23.13417568 -14.78515625 31.50390625 C-19.73849607 35.31259533 -23.65725136 38 -30 38 C-30.66 36.68 -31.32 35.36 -32 34 C-31.01 34 -30.02 34 -29 34 C-29 34.66 -29 35.32 -29 36 C-24.53939095 34.60605967 -21.36767444 32.11795013 -17.76953125 29.2421875 C-16 28 -16 28 -14 28 C-13.773125 27.278125 -13.54625 26.55625 -13.3125 25.8125 C-12 23 -12 23 -9.62109375 20.73046875 C-6.79712106 17.78865518 -5.39803014 15.21240473 -3.75 11.5 C-3.24984375 10.3965625 -2.7496875 9.293125 -2.234375 8.15625 C-1.15721429 5.40199097 -0.45628335 2.91152233 0 0 Z " fill="#40C5CD" transform="translate(129,74)"/>
<path d="M0 0 C0.66 0.66 1.32 1.32 2 2 C-3.42465753 8.78082192 -3.42465753 8.78082192 -7 11 C-7.66 11 -8.32 11 -9 11 C-9.185625 11.5775 -9.37125 12.155 -9.5625 12.75 C-11.7455721 16.16698242 -14.36787815 17.2157998 -18 19 C-18.99 19 -19.98 19 -21 19 C-20.525625 20.093125 -20.05125 21.18625 -19.5625 22.3125 C-18.59812191 24.53476255 -17.76833172 26.69500485 -17 29 C-16.34 29 -15.68 29 -15 29 C-15 29.66 -15 30.32 -15 31 C-12.525 31.99 -12.525 31.99 -10 33 C-10.66 33.66 -11.32 34.32 -12 35 C-20.42169595 29.3315508 -20.42169595 29.3315508 -23 25 C-23.4609375 21.609375 -23.4609375 21.609375 -23 18 C-20.48046875 15.6015625 -20.48046875 15.6015625 -17.1875 13.625 C-16.10855469 12.95726563 -15.02960938 12.28953125 -13.91796875 11.6015625 C-11 10 -11 10 -8 9 C-7.175 7.989375 -6.35 6.97875 -5.5 5.9375 C-4.675 4.968125 -3.85 3.99875 -3 3 C-2.01 3 -1.02 3 0 3 C0 2.01 0 1.02 0 0 Z " fill="#46C7CE" transform="translate(128,103)"/>
<path d="M0 0 C0.66 0.33 1.32 0.66 2 1 C-2 8.71428571 -2 8.71428571 -6 10 C-6 10.66 -6 11.32 -6 12 C-7.6796875 13.7265625 -7.6796875 13.7265625 -9.875 15.625 C-10.59429687 16.25664062 -11.31359375 16.88828125 -12.0546875 17.5390625 C-14 19 -14 19 -16 19 C-16 19.66 -16 20.32 -16 21 C-20.87288478 24.5439162 -26.15549417 27.46197215 -32 29 C-32.33 28.34 -32.66 27.68 -33 27 C-32.05640625 26.56300781 -32.05640625 26.56300781 -31.09375 26.1171875 C-25.79216665 23.57817619 -21.15704057 20.84906784 -16.59375 17.13671875 C-15 16 -15 16 -13 16 C-13 15.34 -13 14.68 -13 14 C-11.42578125 12.51953125 -11.42578125 12.51953125 -9.3125 10.8125 C-5.44262987 7.54063822 -2.76405521 4.23245953 0 0 Z " fill="#52CAD2" transform="translate(162,145)"/>
<path d="M0 0 C2.30664062 -0.35644531 2.30664062 -0.35644531 5.15625 -0.328125 C6.68958984 -0.32039062 6.68958984 -0.32039062 8.25390625 -0.3125 C9.32511719 -0.291875 10.39632812 -0.27125 11.5 -0.25 C12.57121094 -0.24484375 13.64242187 -0.2396875 14.74609375 -0.234375 C22.6915621 -0.15421895 22.6915621 -0.15421895 25 1 C26.3288433 1.19932649 27.66335386 1.36240407 29 1.5 C31.36166843 1.74311293 32.8621178 1.9310589 35 3 C35 3.66 35 4.32 35 5 C26 4 26 4 24.02905273 3.74389648 C18.30780972 3.03370364 12.69837577 2.87939962 6.9375 2.9375 C5.6390918 2.94426758 5.6390918 2.94426758 4.31445312 2.95117188 C2.20960461 2.96280087 0.10479242 2.98072927 -2 3 C-1.34 2.01 -0.68 1.02 0 0 Z " fill="#39C3CB" transform="translate(84,10)"/>
<path d="M0 0 C0.66 0.33 1.32 0.66 2 1 C2.31129158 6.74750556 1.30341126 11.26689132 -0.5625 16.6875 C-0.96142456 17.8619165 -0.96142456 17.8619165 -1.3684082 19.06005859 C-3.73232623 25.74150062 -6.50339982 32.4472976 -11 38 C-11.99 38 -12.98 38 -14 38 C-13.54560547 37.21689453 -13.54560547 37.21689453 -13.08203125 36.41796875 C-6.50635254 24.86500708 -1.47907574 13.31168167 0 0 Z " fill="#50CAD1" transform="translate(178,105)"/>
<path d="M0 0 C0.66 0 1.32 0 2 0 C2.69591404 1.8441722 3.38888984 3.6894867 4.0703125 5.5390625 C4.70229419 7.21195522 5.36507158 8.87346756 6.0546875 10.5234375 C8.58526889 16.82218387 9.53896744 22.46916893 9.82421875 29.25 C9.8883869 32.0902723 9.8883869 32.0902723 11 35 C11.3021788 39.74598472 11.19309535 44.37675552 10 49 C9.34 48.34 8.68 47.68 8 47 C8.26989873 45.1107089 8.54318284 43.22182214 8.8359375 41.3359375 C9.07629512 37.91370278 8.30215122 34.8922642 7.53515625 31.5703125 C7.00599611 29.02879882 6.75306483 26.58681614 6.5625 24 C5.87821774 16.36485053 3.47765982 9.78971679 0 3 C0 2.01 0 1.02 0 0 Z " fill="#59CCD4" transform="translate(170,56)"/>
<path d="M0 0 C0.33 0 0.66 0 1 0 C1.17015625 1.06476563 1.3403125 2.12953125 1.515625 3.2265625 C4.18725134 20.30704431 4.18725134 20.30704431 11 36 C11.1875 38.8125 11.1875 38.8125 11 41 C10.34 40.67 9.68 40.34 9 40 C9 39.01 9 38.02 9 37 C8.34 37 7.68 37 7 37 C5.19768281 31.70118747 3.44875368 26.40868039 2 21 C1.81308594 20.33613281 1.62617188 19.67226562 1.43359375 18.98828125 C-0.19591464 12.64117513 -0.19873266 6.52505552 0 0 Z " fill="#4FCAD1" transform="translate(0,101)"/>
<path d="M0 0 C0.66 0.66 1.32 1.32 2 2 C0.80503906 2.45890625 -0.38992187 2.9178125 -1.62109375 3.390625 C-3.22676069 4.00990304 -4.83221592 4.62973018 -6.4375 5.25 C-7.68067993 5.7298938 -7.68067993 5.7298938 -8.94897461 6.21948242 C-13.04390113 7.81094633 -17.08657746 9.43854368 -21.0625 11.3125 C-25.23165531 13.23990712 -29.49356805 14.19033374 -34 15 C-34 14.34 -34 13.68 -34 13 C-30.39673211 11.5810401 -26.79221929 10.16526825 -23.1875 8.75 C-22.18267578 8.35425781 -21.17785156 7.95851562 -20.14257812 7.55078125 C-13.46395606 4.93087163 -6.75436488 2.41793089 0 0 Z " fill="#49C8CF" transform="translate(127,173)"/>
<path d="M0 0 C0.33 0.66 0.66 1.32 1 2 C0.67 2.99 0.34 3.98 0 5 C-0.48790623 14.03193865 -0.49605134 21.97133689 4 30 C4.66 30 5.32 30 6 30 C6 30.99 6 31.98 6 33 C6.66 33.33 7.32 33.66 8 34 C6.25 33.875 6.25 33.875 4 33 C1.875 30.0625 1.875 30.0625 0 27 C-0.66 26.34 -1.32 25.68 -2 25 C-4.85246461 17.44096879 -4.25939279 9.00995793 -0.921875 1.609375 C-0.61765625 1.07828125 -0.3134375 0.5471875 0 0 Z " fill="#5ECED5" transform="translate(43,90)"/>
<path d="M0 0 C2.0625 2.1875 2.0625 2.1875 3 4 C2.01 4.495 2.01 4.495 1 5 C0.67 4.34 0.34 3.68 0 3 C-8.29591304 0.68802424 -17.51807173 -1.05857018 -26 1 C-25 -1 -25 -1 -22 -2.125 C-14.43246965 -4.05549244 -7.04201443 -3.48455787 0 0 Z " fill="#3AC3CC" transform="translate(115,41)"/>
<path d="M0 0 C0.66 0.33 1.32 0.66 2 1 C-0.21774774 5.16757965 -2.83569457 7.8970473 -6.375 11 C-10.04324646 14.23371589 -13.57563121 17.51336996 -17 21 C-13.16390128 12.73190372 -6.51845118 6.21369242 0 0 Z " fill="#49C8CF" transform="translate(32,22)"/>
<path d="M0 0 C-0.33 0.66 -0.66 1.32 -1 2 C-2.73104914 2.48946907 -4.48744835 2.89010725 -6.25 3.25 C-12.39653973 4.67240068 -17.73782985 7.01108881 -23.3828125 9.79296875 C-26 11 -26 11 -28 11 C-28 10.34 -28 9.68 -28 9 C-27.34 9 -26.68 9 -26 9 C-26 8.34 -26 7.68 -26 7 C-25.30132812 6.80664062 -24.60265625 6.61328125 -23.8828125 6.4140625 C-22.97273438 6.15367188 -22.06265625 5.89328125 -21.125 5.625 C-20.22007813 5.36976562 -19.31515625 5.11453125 -18.3828125 4.8515625 C-15.85430274 4.1395685 -15.85430274 4.1395685 -14 2 C-9.16433271 0.54929981 -5.08159232 -0.25407962 0 0 Z " fill="#4AC8D0" transform="translate(81,12)"/>
<path d="M0 0 C-0.639375 0.28875 -1.27875 0.5775 -1.9375 0.875 C-4.15206079 1.82823451 -4.15206079 1.82823451 -5 4 C-7.3140622 4.73075648 -9.64828869 5.40138258 -12 6 C-12 6.66 -12 7.32 -12 8 C-15.82517513 10.39073445 -19.59665524 10.55966552 -24 11 C-23.34 10.67 -22.68 10.34 -22 10 C-22 9.34 -22 8.68 -22 8 C-21.33613281 7.74605469 -20.67226562 7.49210938 -19.98828125 7.23046875 C-15.40302826 5.44322416 -11.17703314 3.62556369 -7 1 C-2.3373494 -1.1686747 -2.3373494 -1.1686747 0 0 Z " fill="#4FC9D1" transform="translate(149,177)"/>
<path d="M0 0 C3.36601064 1.12200355 4.06243251 2.00415203 6.25 4.6875 C10.03732237 9.15255375 14.20362617 12.77645165 18.7734375 16.41015625 C20.21319802 17.56940005 21.61100253 18.78039246 23 20 C23 20.66 23 21.32 23 22 C22.34 22 21.68 22 21 22 C20.67 21.34 20.34 20.68 20 20 C19.29875 19.5875 18.5975 19.175 17.875 18.75 C12.30373349 15.3587943 7.93267485 11.19674891 4 6 C3.443125 5.46375 2.88625 4.9275 2.3125 4.375 C1 3 1 3 0 0 Z " fill="#5ACDD4" transform="translate(19,154)"/>
<path d="M0 0 C3.88694884 1.46175854 5.00815228 3.30126163 6.75 7 C7.17796875 7.886875 7.6059375 8.77375 8.046875 9.6875 C9 12 9 12 9 14 C9.66 14 10.32 14 11 14 C11.99 16.31 12.98 18.62 14 21 C13.01 20.67 12.02 20.34 11 20 C11 19.34 11 18.68 11 18 C10.34 17.67 9.68 17.34 9 17 C8.33333333 15.66666667 7.66666667 14.33333333 7 13 C6.34 12.67 5.68 12.34 5 12 C5 11.34 5 10.68 5 10 C4.34 9.67 3.68 9.34 3 9 C2.65657551 7.66923011 2.32380126 6.33568021 2 5 C1.34 4.34 0.68 3.68 0 3 C0 2.01 0 1.02 0 0 Z " fill="#56CBD3" transform="translate(90,122)"/>
<path d="M0 0 C0 0.66 0 1.32 0 2 C-3.74836061 2.53311805 -7.49885774 3.04935091 -11.25 3.5625 C-12.84521484 3.78969727 -12.84521484 3.78969727 -14.47265625 4.02148438 C-15.49746094 4.16005859 -16.52226563 4.29863281 -17.578125 4.44140625 C-18.52075195 4.57232666 -19.46337891 4.70324707 -20.43457031 4.83813477 C-22.90888265 4.99425097 -24.65661623 4.75460815 -27 4 C-17.6647778 0.86493287 -9.87722251 -0.59066447 0 0 Z " fill="#42C6CE" transform="translate(91,0)"/>
<path d="M0 0 C3.35113769 3.54447256 3.75665657 7.27200221 4.25 11.9375 C4.34023437 12.64068359 4.43046875 13.34386719 4.5234375 14.06835938 C4.97304722 17.93717848 5.03194073 21.23341633 4 25 C1.52805498 21.29208247 1.31976051 17.94136434 0.875 13.625 C0.78863281 12.86960937 0.70226562 12.11421875 0.61328125 11.3359375 C0.19514293 7.53950702 -0.10669127 3.82564421 0 0 Z " fill="#48C7CF" transform="translate(139,52)"/>
<path d="M0 0 C0.66 0.33 1.32 0.66 2 1 C0.23885299 3.00932223 -1.53286463 5.00716745 -3.3125 7 C-3.81201172 7.57234375 -4.31152344 8.1446875 -4.82617188 8.734375 C-6.15598061 10.21389731 -7.57387123 11.61308462 -9 13 C-9.99 13 -10.98 13 -12 13 C-10.63055898 10.05043472 -9.12169591 7.47531189 -7 5 C-6.34 5 -5.68 5 -5 5 C-5 4.34 -5 3.68 -5 3 C-2.625 1.3125 -2.625 1.3125 0 0 Z " fill="#3EC4CD" transform="translate(82,32)"/>
<path d="M0 0 C0.7425 0.763125 1.485 1.52625 2.25 2.3125 C4.823554 4.95571199 4.823554 4.95571199 7.3125 6.6875 C7.869375 7.120625 8.42625 7.55375 9 8 C9 8.66 9 9.32 9 10 C9.5775 10.28875 10.155 10.5775 10.75 10.875 C12.83333333 11.91666667 14.91666667 12.95833333 17 14 C17 14.66 17 15.32 17 16 C18.32 16.66 19.64 17.32 21 18 C14.84309435 17.12044205 11.24218887 14.37475727 7 10 C6.13375 9.319375 5.2675 8.63875 4.375 7.9375 C2 6 2 6 0 3 C0 2.01 0 1.02 0 0 Z " fill="#4EC9D1" transform="translate(32,150)"/>
<path d="M0 0 C0 0.66 0 1.32 0 2 C-1.1446875 2.5259375 -1.1446875 2.5259375 -2.3125 3.0625 C-6.25802781 5.90695028 -6.77941709 9.44755564 -8 14 C-8.33 14.99 -8.66 15.98 -9 17 C-9.66 17 -10.32 17 -11 17 C-10.73129039 10.95403384 -10.07286979 6.77107604 -6 2 C-3.76335858 0.55276143 -2.64566409 0 0 0 Z " fill="#5ACDD4" transform="translate(62,89)"/>
<path d="M0 0 C0.66 0.66 1.32 1.32 2 2 C0.72028688 7.35152759 -1.32895279 11.8927169 -3.87890625 16.765625 C-5.10460687 19.07581261 -5.10460687 19.07581261 -6 22 C-6.66 22 -7.32 22 -8 22 C-7.49287967 18.28111761 -6.88391785 15.26545761 -5 12 C-4.34 12 -3.68 12 -3 12 C-2.814375 10.4221875 -2.814375 10.4221875 -2.625 8.8125 C-2.08859218 5.54041229 -1.36119965 2.99463924 0 0 Z " fill="#69D1D8" transform="translate(141,77)"/>
<path d="M0 0 C0.33 0.99 0.66 1.98 1 3 C-0.28548409 4.33929505 -1.57858155 5.67128643 -2.875 7 C-3.59429687 7.7425 -4.31359375 8.485 -5.0546875 9.25 C-7 11 -7 11 -9 11 C-9.33 12.32 -9.66 13.64 -10 15 C-11 13 -11 13 -10.5 10.8125 C-8.17232625 6.44811172 -4.47941699 2.23970849 0 0 Z " fill="#32C1C9" transform="translate(54,79)"/>
<path d="M0 0 C0.66 0 1.32 0 2 0 C1.47957586 5.98487755 0.01924507 11.75705698 -3 17 C-5.13671875 18.29296875 -5.13671875 18.29296875 -7 19 C-6.74605469 18.38253906 -6.49210937 17.76507813 -6.23046875 17.12890625 C-3.935003 11.480513 -1.85206994 5.80876483 0 0 Z " fill="#4FCAD1" transform="translate(129,74)"/>
<path d="M0 0 C0.66 0 1.32 0 2 0 C2.67126129 2.4363189 3.33716354 4.87388883 4 7.3125 C4.19078125 8.00279297 4.3815625 8.69308594 4.578125 9.40429688 C5.37716184 12.35787949 6 14.92559219 6 18 C5.34 18 4.68 18 4 18 C2.24619442 14.08709763 1.47435082 10.4257665 0.875 6.1875 C0.70742187 5.02605469 0.53984375 3.86460938 0.3671875 2.66796875 C0.24601563 1.78753906 0.12484375 0.90710937 0 0 Z " fill="#49C8D0" transform="translate(185,63)"/>
<path d="M0 0 C7.92513274 0.44028515 14.62014153 3.02250564 20.625 8.3125 C21.305625 9.1478125 21.305625 9.1478125 22 10 C18.53154863 8.95946459 15.33543038 7.71847298 12.125 6.0625 C8.18153672 4.02986545 4.17654273 2.4916224 0 1 C0 0.67 0 0.34 0 0 Z " fill="#5FCED5" transform="translate(107,28)"/>
<path d="M0 0 C2 2 2 2 2.1875 4.5625 C2 7 2 7 1 8 C-6.32489451 7.52742616 -6.32489451 7.52742616 -9 5.4375 C-9.33 4.963125 -9.66 4.48875 -10 4 C-9.67 3.01 -9.34 2.02 -9 1 C-8.2575 1.639375 -7.515 2.27875 -6.75 2.9375 C-4.2888879 4.78333407 -2.96533074 5.56069174 0 6 C-0.33 5.01 -0.66 4.02 -1 3 C-0.67 2.01 -0.34 1.02 0 0 Z " fill="#4DC9D0" transform="translate(65,110)"/>
<path d="M0 0 C0.33 0.66 0.66 1.32 1 2 C0.67 2.66 0.34 3.32 0 4 C-0.969375 4.226875 -1.93875 4.45375 -2.9375 4.6875 C-7.59993692 5.8555225 -10.9908669 8.66696395 -14.765625 11.5390625 C-17 13 -17 13 -20 13 C-14.00990552 7.28851456 -7.32680001 3.7239976 0 0 Z " fill="#5ACDD4" transform="translate(54,8)"/>
<path d="M0 0 C0.66 0.66 1.32 1.32 2 2 C-3.42465753 8.78082192 -3.42465753 8.78082192 -7 11 C-7.66 11 -8.32 11 -9 11 C-9.268125 11.639375 -9.53625 12.27875 -9.8125 12.9375 C-11 15 -11 15 -14 16 C-14 15.34 -14 14.68 -14 14 C-12.56480492 12.79844133 -11.12492768 11.60180017 -9.65625 10.44140625 C-7.97128649 8.97501112 -6.67893843 7.44970566 -5.3125 5.6875 C-4.1678125 4.3571875 -4.1678125 4.3571875 -3 3 C-2.01 3 -1.02 3 0 3 C0 2.01 0 1.02 0 0 Z " fill="#5FCED5" transform="translate(128,103)"/>
<path d="M0 0 C3.1563977 1.44578761 5.7213879 3.2190566 8.4375 5.375 C9.21867188 5.99503906 9.99984375 6.61507813 10.8046875 7.25390625 C11.52914062 7.83011719 12.25359375 8.40632813 13 9 C14.010625 9.763125 15.02125 10.52625 16.0625 11.3125 C16.701875 11.869375 17.34125 12.42625 18 13 C18 13.66 18 14.32 18 15 C13.6638133 13.1121364 10.7158654 10.09118396 7.31640625 6.875 C4.94749074 4.95749672 2.87103013 3.97220068 0 3 C0 2.01 0 1.02 0 0 Z " fill="#58CCD3" transform="translate(148,15)"/>
<path d="M0 0 C0.8971875 0.309375 0.8971875 0.309375 1.8125 0.625 C-8.56107631 7.14436219 -8.56107631 7.14436219 -14.1875 8.625 C-14.5175 7.965 -14.8475 7.305 -15.1875 6.625 C-14.50042969 6.28726563 -13.81335938 5.94953125 -13.10546875 5.6015625 C-12.20441406 5.15554687 -11.30335938 4.70953125 -10.375 4.25 C-9.48167969 3.80914062 -8.58835938 3.36828125 -7.66796875 2.9140625 C-1.54947917 -0.265625 -1.54947917 -0.265625 0 0 Z " fill="#45C6CE" transform="translate(144.1875,165.375)"/>
<path d="M0 0 C1.32 0 2.64 0 4 0 C6.95705401 3.66012978 7.58480161 7.22271999 8.1875 11.8125 C8.34605469 12.97394531 8.50460938 14.13539062 8.66796875 15.33203125 C8.77753906 16.21246094 8.88710937 17.09289062 9 18 C6.82161411 15.82161411 6.47163497 14.70599953 5.625 11.8125 C4.25052298 7.45646512 2.39465009 3.88098463 0 0 Z " fill="#58CCD3" transform="translate(78,95)"/>
<path d="M0 0 C12.66970387 -0.3690205 12.66970387 -0.3690205 18 2 C18 2.66 18 3.32 18 4 C15.84314698 3.76534238 13.68689266 3.52682954 11.53125 3.28125 C9.90771642 3.10085738 8.28270589 2.93305255 6.65625 2.78125 C4.76265319 2.58914598 2.87920197 2.3020146 1 2 C0.67 1.34 0.34 0.68 0 0 Z " fill="#55CBD3" transform="translate(101,11)"/>
<path d="M0 0 C0.33 0 0.66 0 1 0 C1.20086443 3.71599191 1.1519437 4.77208445 -1 8 C-1.55477427 9.91325306 -1.55477427 9.91325306 -1.9375 11.9375 C-2.69907147 15.24576647 -3.66364598 17.45125016 -6 20 C-5.57534294 12.63927766 -3.01651083 6.67862176 0 0 Z " fill="#66D0D7" transform="translate(68,45)"/>
<path d="M0 0 C2.86392794 3.52830761 5.58784278 7.12984917 8.25 10.8125 C8.95640625 11.78832031 9.6628125 12.76414063 10.390625 13.76953125 C10.92171875 14.50558594 11.4528125 15.24164063 12 16 C11.01 16 10.02 16 9 16 C8.34 14.68 7.68 13.36 7 12 C6.34 12 5.68 12 5 12 C4.67 10.35 4.34 8.7 4 7 C3.34 7 2.68 7 2 7 C0 4 0 4 0 0 Z " fill="#5ACDD4" transform="translate(20,133)"/>
<path d="M0 0 C0.33 0.99 0.66 1.98 1 3 C-2.42346555 6.14958831 -5.44262737 6.56179109 -10 7 C-10.66 5.68 -11.32 4.36 -12 3 C-11.01 3 -10.02 3 -9 3 C-9 3.66 -9 4.32 -9 5 C-5.54074837 3.7508258 -2.85306797 2.32472205 0 0 Z " fill="#4CC8D0" transform="translate(109,105)"/>
<path d="M0 0 C0.33 0 0.66 0 1 0 C1.36551926 4.6603705 1.62058305 7.95142865 -0.8125 12.0625 C-3 14 -3 14 -6 14 C-6 13.34 -6 12.68 -6 12 C-5.360625 11.443125 -4.72125 10.88625 -4.0625 10.3125 C-1.37892503 7.30364322 -1.37168058 4.93981418 -1 1 C-0.67 0.67 -0.34 0.34 0 0 Z " fill="#58CCD3" transform="translate(62,66)"/>
<path d="M0 0 C0.66 0.33 1.32 0.66 2 1 C2 1.66 2 2.32 2 3 C1.34 3 0.68 3 0 3 C-0.33 3.99 -0.66 4.98 -1 6 C-1.66 6 -2.32 6 -3 6 C-3.2475 6.598125 -3.495 7.19625 -3.75 7.8125 C-5.16370012 10.28647521 -6.65055383 11.43370255 -9 13 C-7.16795959 7.65654881 -4.06026166 3.85724858 0 0 Z " fill="#54CBD2" transform="translate(175,148)"/>
<path d="M0 0 C0.66 0.33 1.32 0.66 2 1 C1.34 3.31 0.68 5.62 0 8 C-0.66 8 -1.32 8 -2 8 C-2.33 9.32 -2.66 10.64 -3 12 C-3.66 12 -4.32 12 -5 12 C-5.33 12.99 -5.66 13.98 -6 15 C-5.59419894 9.7245862 -4.89221021 7.52731551 -1 4 C-0.2127322 1.8618034 -0.2127322 1.8618034 0 0 Z " fill="#59CCD3" transform="translate(183,133)"/>
<path d="M0 0 C0.66 0.33 1.32 0.66 2 1 C0.27278316 2.27348212 -1.45686238 3.54367057 -3.1875 4.8125 C-4.15042969 5.52019531 -5.11335938 6.22789063 -6.10546875 6.95703125 C-8.6779333 8.77268437 -11.27720484 10.42207301 -14 12 C-12.5342196 8.41081881 -10.63223332 6.63622259 -7.5625 4.3125 C-6.78003906 3.71050781 -5.99757813 3.10851562 -5.19140625 2.48828125 C-3 1 -3 1 0 0 Z " fill="#57CCD3" transform="translate(51,23)"/>
<path d="M0 0 C0.33 0 0.66 0 1 0 C1 2.97 1 5.94 1 9 C0.34 9 -0.32 9 -1 9 C-1 9.66 -1 10.32 -1 11 C-4.3 11.33 -7.6 11.66 -11 12 C-8.80807986 10.90403993 -6.60779863 9.82257557 -4.375 8.8125 C-1.1259965 6.33299733 -0.81139553 3.90945118 0 0 Z " fill="#44C6CE" transform="translate(71,178)"/>
<path d="M0 0 C0.66 0 1.32 0 2 0 C2.144375 1.0725 2.28875 2.145 2.4375 3.25 C2.85389686 6.75877508 2.85389686 6.75877508 3.6875 9.0625 C4.16363112 12.01451293 3.05701147 14.26420561 2 17 C1.67 17 1.34 17 1 17 C0.67 11.39 0.34 5.78 0 0 Z " fill="#43C6CE" transform="translate(75,102)"/>
<path d="M0 0 C0.66 0 1.32 0 2 0 C2 0.66 2 1.32 2 2 C2.99 2.33 3.98 2.66 5 3 C5 3.99 5 4.98 5 6 C5.721875 6.12375 6.44375 6.2475 7.1875 6.375 C9.95721894 6.9904931 12.3970354 7.88444374 15 9 C12.83032311 9.95465783 11.43671207 10.14401212 9.17578125 9.3984375 C7.4315257 8.64129615 5.71372869 7.82390802 4 7 C4 6.34 4 5.68 4 5 C3.34 5 2.68 5 2 5 C1.34 3.35 0.68 1.7 0 0 Z " fill="#39C3CB" transform="translate(102,139)"/>
<path d="M0 0 C0.97582031 0.00902344 1.95164062 0.01804687 2.95703125 0.02734375 C4.06111328 0.04474609 4.06111328 0.04474609 5.1875 0.0625 C5.1875 0.3925 5.1875 0.7225 5.1875 1.0625 C4.51203125 1.11148437 3.8365625 1.16046875 3.140625 1.2109375 C2.24859375 1.28570313 1.3565625 1.36046875 0.4375 1.4375 C-0.44421875 1.50710937 -1.3259375 1.57671875 -2.234375 1.6484375 C-4.81736251 2.06328095 -6.50600445 2.88970565 -8.8125 4.0625 C-11.5625 3.6875 -11.5625 3.6875 -13.8125 3.0625 C-9.29595102 0.05146735 -5.33887619 -0.06432381 0 0 Z " fill="#55CBD2" transform="translate(101.8125,26.9375)"/>
<path d="M0 0 C4.56140868 2.01550616 7.71436161 4.23117949 11 8 C11 8.66 11 9.32 11 10 C8.06120516 8.64763423 5.70767089 7.10057341 3.25 5 C2.63640625 4.484375 2.0228125 3.96875 1.390625 3.4375 C0 2 0 2 0 0 Z " fill="#4CC8D0" transform="translate(80,79)"/>
<path d="M0 0 C-1.75864246 2.1793144 -2.69396 2.93686419 -5.48046875 3.51171875 C-6.37378906 3.56972656 -7.26710938 3.62773437 -8.1875 3.6875 C-9.08855469 3.75324219 -9.98960938 3.81898438 -10.91796875 3.88671875 C-11.94857422 3.94279297 -11.94857422 3.94279297 -13 4 C-8.61350163 0.52105302 -5.57581513 -0.123907 0 0 Z " fill="#4AC8D0" transform="translate(125,188)"/>
<path d="M0 0 C1.46573934 0.90477737 2.92235756 1.82434141 4.375 2.75 C5.18710937 3.26046875 5.99921875 3.7709375 6.8359375 4.296875 C9.08555679 6.0673335 9.95906848 7.36907419 11 10 C10.34 10 9.68 10 9 10 C8.67 9.34 8.34 8.68 8 8 C6.33720673 6.9935725 4.67016516 5.99414593 3 5 C1.1875 3.4375 1.1875 3.4375 0 2 C0 1.34 0 0.68 0 0 Z " fill="#4EC9D1" transform="translate(31,166)"/>
<path d="M0 0 C2.72957339 2.35735884 3.88893396 4.58133526 5 8 C5 8.99 5 9.98 5 11 C2 10 2 10 0.8125 7.75 C0.00061706 5.00208853 -0.16260121 2.84552111 0 0 Z " fill="#51CAD1" transform="translate(91,89)"/>
<path d="M0 0 C2.7053871 4.05808065 5 8.04889399 5 13 C4.01 12.67 3.02 12.34 2 12 C0.51117562 7.92532275 -0.26270217 4.33458585 0 0 Z " fill="#50CAD1" transform="translate(15,120)"/>
<path d="M0 0 C0.66 0.66 1.32 1.32 2 2 C-5.28571429 5.42857143 -5.28571429 5.42857143 -10 5 C-6.8745041 2.35534962 -3.91211733 1.15585285 0 0 Z " fill="#4AC8D0" transform="translate(90,187)"/>
<path d="M0 0 C5.94 1.485 5.94 1.485 12 3 C12 3.66 12 4.32 12 5 C7.25081338 4.53439347 3.89217595 3.83067342 0 1 C0 0.67 0 0.34 0 0 Z " fill="#5BCDD4" transform="translate(109,147)"/>
<path d="M0 0 C1 3 1 3 -0.4375 6.1875 C-1.2109375 7.5796875 -1.2109375 7.5796875 -2 9 C-2.99 8.67 -3.98 8.34 -5 8 C-2.25 1.125 -2.25 1.125 0 0 Z " fill="#44C6CE" transform="translate(63,142)"/>
<path d="M0 0 C1.5 1.0625 1.5 1.0625 3 3 C3.1875 6.6875 3.1875 6.6875 3 10 C2.01 10.495 2.01 10.495 1 11 C0.4254048 7.26513121 0 3.78706732 0 0 Z " fill="#5ACDD4" transform="translate(62,91)"/>
<path d="M0 0 C0.33 0 0.66 0 1 0 C1.22226864 1.76913824 1.42733873 3.54044371 1.625 5.3125 C1.74101562 6.29863281 1.85703125 7.28476563 1.9765625 8.30078125 C2 11 2 11 0 14 C-1.13016601 8.97703996 -0.77916092 5.02125926 0 0 Z " fill="#6BD2D8" transform="translate(142,63)"/>
<path d="M0 0 C6.52307692 0.49230769 6.52307692 0.49230769 8.9375 3.0625 C9.288125 3.701875 9.63875 4.34125 10 5 C9.01 5.495 9.01 5.495 8 6 C7.67 5.34 7.34 4.68 7 4 C4.69034152 2.94647157 2.3570226 1.94280904 0 1 C0 0.67 0 0.34 0 0 Z " fill="#55CBD3" transform="translate(108,40)"/>
<path d="M0 0 C0.33 0 0.66 0 1 0 C1.17942163 3.94727588 1.09350689 6.5980513 -1 10 C-1.66 10 -2.32 10 -3 10 C-2.49287967 6.28111761 -1.88391785 3.26545761 0 0 Z " fill="#4AC8D0" transform="translate(136,89)"/>
<path d="M0 0 C0.66 0 1.32 0 2 0 C2.5345256 1.24420647 3.05208611 2.49570936 3.5625 3.75 C3.85253906 4.44609375 4.14257812 5.1421875 4.44140625 5.859375 C5.07831803 8.30012784 4.80248831 9.6403655 4 12 C3.32645501 10.56570999 2.66140299 9.12742943 2 7.6875 C1.62875 6.88699219 1.2575 6.08648437 0.875 5.26171875 C0 3 0 3 0 0 Z " fill="#58CCD3" transform="translate(170,56)"/>
<path d="M0 0 C1.98 0.99 1.98 0.99 4 2 C4 3.98 4 5.96 4 8 C0 3.375 0 3.375 0 0 Z " fill="#53CBD2" transform="translate(90,122)"/>
<path d="M0 0 C0.33 0 0.66 0 1 0 C1.33 2.64 1.66 5.28 2 8 C1.01 8.33 0.02 8.66 -1 9 C-0.67 6.03 -0.34 3.06 0 0 Z " fill="#45C7CF" transform="translate(52,97)"/>
<path d="M0 0 C1 3 1 3 -0.4375 6.1875 C-1.2109375 7.5796875 -1.2109375 7.5796875 -2 9 C-2.97110486 5.97878489 -3.13617383 3.99536737 -2 1 C-1.34 0.67 -0.68 0.34 0 0 Z " fill="#52CAD2" transform="translate(65,56)"/>
<path d="M0 0 C2.95409701 1.37154504 5.44008376 2.98863724 8 5 C7.67 5.66 7.34 6.32 7 7 C6.1028125 6.2884375 6.1028125 6.2884375 5.1875 5.5625 C2.99617076 3.83534256 2.99617076 3.83534256 0 3 C0 2.01 0 1.02 0 0 Z " fill="#4AC8D0" transform="translate(148,15)"/>
<path d="" fill="#7CD7DD" transform="translate(0,0)"/>
<path d="" fill="#7CD7DD" transform="translate(0,0)"/>
<path d="" fill="#7CD7DD" transform="translate(0,0)"/>
<path d="" fill="#7CD7DD" transform="translate(0,0)"/>
<path d="" fill="#7CD7DD" transform="translate(0,0)"/>
</svg>
